<svg width="38" height="39" viewBox="0 0 38 39" fill="none" xmlns="http://www.w3.org/2000/svg">
<path fill-rule="evenodd" clip-rule="evenodd" d="M0.0530396 19.4629C0.0530396 30.7396 7.44496 38.0776 19.3692 38.0776C30.6459 38.0776 37.822 32.4662 37.822 23.2937C37.822 22.8468 37.4596 22.4844 37.0126 22.4844H29.6207C29.1737 22.4844 28.8114 22.8468 28.8114 23.2937C28.8114 28.0418 26.1136 30.308 19.531 30.308C11.5995 30.308 7.84434 27.5783 7.84434 19.5389C7.84434 11.4995 11.5995 8.61781 19.531 8.61781C26.1136 8.61781 28.8114 10.8839 28.8114 15.632C28.8114 16.079 29.1737 16.4414 29.6207 16.4414H37.0126C37.4596 16.4414 37.822 16.079 37.822 15.632C37.822 6.45959 30.5919 0.848206 19.3692 0.848206C7.44496 0.848206 0.0530396 8.18617 0.0530396 19.4629Z" fill="#294F74"/>
<path d="M13.6234 19.4629C13.6234 15.5435 15.0701 14.1756 18.937 14.1756C22.8038 14.1756 24.2506 15.5435 24.2506 19.4629C24.2506 23.3824 22.8038 24.7502 18.937 24.7502C15.0701 24.7502 13.6234 23.3824 13.6234 19.4629Z" fill="#294F74"/>
</svg>
