<svg width="878" height="147" viewBox="0 0 878 147" fill="none" xmlns="http://www.w3.org/2000/svg">
<path fill-rule="evenodd" clip-rule="evenodd" d="M0.179688 59.4878C0.179688 95.5014 23.959 118.936 62.2127 118.936C101.328 118.936 124.935 95.5014 124.935 59.4878C124.935 23.4742 101.328 0.0395508 62.2127 0.0395508C23.959 0.0395508 0.179688 23.4742 0.179688 59.4878ZM97.3648 59.4878C97.3648 85.1625 87.5429 94.1228 62.2127 94.1228C36.8826 94.1228 27.5776 85.1625 27.5776 59.4878C27.5776 33.813 36.8826 24.8527 62.2127 24.8527C87.5429 24.8527 97.3648 33.813 97.3648 59.4878ZM134.484 146.506H160.331V93.9505H161.537C164.466 109.114 175.494 118.936 195.483 118.936C221.502 118.936 235.977 101.532 235.977 74.1345C235.977 46.7366 221.158 29.1606 194.621 29.1606C174.288 29.1606 163.26 37.9486 160.158 54.4907H158.435V30.8837H134.484V146.506ZM185.489 95.329C169.291 95.329 160.331 90.1596 160.331 75.3406V73.9621C160.331 58.6262 168.946 52.9399 185.661 52.9399C202.031 52.9399 209.785 58.2816 209.785 74.1345C209.785 89.815 202.031 95.329 185.489 95.329ZM290.836 118.936C262.059 118.936 242.415 104.806 242.415 74.1345C242.415 46.5643 261.887 29.1606 290.319 29.1606C318.578 29.1606 337.36 43.9795 337.36 71.0328C337.36 73.6452 337.116 75.6464 336.833 77.9631L336.832 77.9672L336.831 77.9761C336.779 78.4058 336.725 78.8465 336.671 79.3039H266.367C267.056 92.572 273.26 98.2584 289.974 98.2584C305.31 98.2584 310.652 94.2952 310.652 86.8857V85.1625H336.499V87.058C336.499 105.84 318.234 118.936 290.836 118.936ZM289.802 49.3213C274.466 49.3213 267.918 54.4907 266.712 65.6911H312.547C311.858 54.3184 304.965 49.3213 289.802 49.3213ZM346.598 117.213H372.445V73.6175C372.445 58.9708 378.304 52.4229 394.674 52.4229C410.527 52.4229 416.213 58.2816 416.213 72.0667V117.213H442.06V63.451C442.06 44.3242 430.86 29.1606 407.253 29.1606C384.679 29.1606 374.341 42.9457 372.1 57.42H370.55V30.8837H346.598V117.213ZM637.512 118.935C608.046 118.935 588.23 101.359 588.23 74.1335C588.23 46.5633 608.046 29.1596 637.512 29.1596C666.977 29.1596 686.793 46.5633 686.793 74.1335C686.793 101.359 666.977 118.935 637.512 118.935ZM637.512 96.0173C654.915 96.0173 661.119 89.2971 661.119 74.1335C661.119 58.9698 654.915 51.905 637.512 51.905C619.936 51.905 613.905 58.9698 613.905 74.1335C613.905 89.2971 619.936 96.0173 637.512 96.0173ZM721.473 117.212H695.626V30.8827H719.577V53.8004H721.128C723.541 39.843 732.673 29.1596 750.077 29.1596C769.376 29.1596 777.303 42.4277 777.303 59.3145V73.6165H751.456V64.6562C751.456 55.1789 747.665 51.0434 737.153 51.0434C725.608 51.0434 721.473 56.3851 721.473 67.2409V117.212ZM782.355 74.1335C782.355 104.805 801.999 118.935 830.775 118.935C858.173 118.935 876.438 105.839 876.438 87.057V85.1615H850.591V86.8847C850.591 94.2942 845.25 98.2574 829.914 98.2574C813.199 98.2574 806.996 92.571 806.307 79.3029H876.611C876.635 79.0926 876.66 78.8859 876.685 78.6822C876.714 78.4387 876.743 78.1995 876.772 77.9636C877.055 75.6463 877.3 73.6448 877.3 71.0318C877.3 43.9785 858.518 29.1596 830.258 29.1596C801.826 29.1596 782.355 46.5633 782.355 74.1335ZM806.651 65.6901C807.857 54.4897 814.405 49.3203 829.741 49.3203C844.905 49.3203 851.797 54.3174 852.487 65.6901H806.651Z" fill="#294F74"/>
<path fill-rule="evenodd" clip-rule="evenodd" d="M455.469 62.2185C455.469 98.754 479.418 122.528 518.051 122.528C554.587 122.528 577.837 104.348 577.837 74.6301C577.837 73.1819 576.663 72.0079 575.215 72.0079H551.266C549.817 72.0079 548.643 73.1819 548.643 74.6301C548.643 90.0135 539.903 97.3555 518.576 97.3555C492.879 97.3555 480.712 88.5116 480.712 62.4648C480.712 36.4179 492.879 27.0815 518.576 27.0815C539.903 27.0815 548.643 34.4235 548.643 49.8069C548.643 51.2551 549.817 52.4291 551.266 52.4291H575.215C576.663 52.4291 577.837 51.2551 577.837 49.8069C577.837 20.089 554.412 1.90869 518.051 1.90869C479.418 1.90869 455.469 25.683 455.469 62.2185Z" fill="#294F74"/>
<path d="M499.432 62.2173C499.432 49.5187 504.12 45.0869 516.648 45.0869C529.176 45.0869 533.864 49.5187 533.864 62.2173C533.864 74.916 529.176 79.3477 516.648 79.3477C504.12 79.3477 499.432 74.916 499.432 62.2173Z" fill="#294F74"/>
</svg>
